<svg xmlns="http://www.w3.org/2000/svg" width="256" height="256"><path fill-opacity=".016" d="M0 128.004v128.004l128.25-.254 128.25-.254.254-127.75L257.008 0H0v128.004m.485.496c0 70.4.119 99.053.265 63.672.146-35.38.146-92.98 0-128C.604 29.153.485 58.1.485 128.5" fill="#1976D2" fill-rule="evenodd"/><path fill-opacity=".063" d="M98.036 17.464c-9.593 9.605-17.238 17.611-16.989 17.792.249.181 2.666.891 5.372 1.578 20.21 5.131 41.091 20.184 53.28 38.407 4.967 7.427 10.796 19.986 11.947 25.741l.604 3.018-23.375-.027-23.375-.027-2.5-4.084c-6.5-10.618-21.217-19.86-35-21.981-25.103-3.862-50.625 13.463-56.492 38.35-7.134 30.257 14.189 59.54 45.429 62.388 16.762 1.528 35.75-7.459 45.509-21.54l2.826-4.079h23.364c12.85 0 23.364.38 23.364.843 0 2.073-4.21 12.765-7.467 18.962-10.893 20.73-31.707 38.121-54.033 45.148-3.85 1.212-7.651 2.413-8.446 2.669-1.503.484 32.464 35.378 34.438 35.378.558 0 29.813-28.829 65.011-64.065l63.997-64.066-64.308-63.934C145.823 28.771 116.568 0 116.181 0c-.386 0-8.551 7.859-18.145 17.464" fill="#1976D2" fill-rule="evenodd"/><path fill-opacity=".162" d="M98.188 17.312l-17.29 17.311 9.62 3.178c29.845 9.859 52.817 33.576 61.941 63.949l.676 2.25h-47.803l-3.755-5.453C92.523 85.402 77.956 78 61.137 78c-20.318 0-37.014 10.343-45.688 28.301-16.066 33.261 8.142 71.753 45.201 71.873 8.393.027 16.827-1.846 23.391-5.195 6.026-3.074 14.623-10.681 18.051-15.972l3.245-5.007h47.798l-.681 2.25c-4.844 16.018-12.793 29.164-24.943 41.25-10.968 10.911-22.265 17.883-36.559 22.565l-10.079 3.301 17.565 17.565 17.565 17.565 64.246-64.247 64.247-64.247-63.995-64.001C145.304 28.8 116.275 0 115.992 0c-.282 0-8.294 7.79-17.804 17.312" fill="#1976D2" fill-rule="evenodd"/><path fill-opacity=".284" d="M99.212 17.288L81.935 34.586l7.283 2.333c26.915 8.626 48.729 28.5 59.913 54.585 1.447 3.375 2.945 7.567 3.329 9.316l.699 3.18h-48.063l-3.007-4.37C85.767 75.907 52.046 71.067 29.25 89.177c-22.592 17.948-24.573 53.34-4.128 73.785 22.466 22.466 59.166 19.269 77.049-6.712l2.925-4.25h48.063l-.67 3.05c-1.093 4.976-5.428 15.025-9.253 21.45-11.734 19.712-32.742 36.306-54.292 42.886l-6.955 2.124 17.262 17.241 17.262 17.242 63.992-63.998 63.991-63.997-64.004-64.004L116.488-.01 99.212 17.288" fill="#1976D2" fill-rule="evenodd"/></svg>